<?xml version="1.0" encoding="UTF-8" standalone="no"?>
<!-- Created with Inkscape (http://www.inkscape.org/) -->
<svg
   xmlns:svg="http://www.w3.org/2000/svg"
   xmlns="http://www.w3.org/2000/svg"
   xmlns:xlink="http://www.w3.org/1999/xlink"
   version="1.0"
   width="615.87061"
   height="619.49646"
   id="svg2956">
  <defs
     id="defs2958">
    <linearGradient
       x1="-25.03809"
       y1="346.13013"
       x2="-12.850741"
       y2="416.3941"
       id="linearGradient4490"
       xlink:href="#linearGradient2625"
       gradientUnits="userSpaceOnUse"
       gradientTransform="matrix(-0.8660258,0.5000002,-0.5000002,-0.8660258,331.77569,548.31819)" />
    <linearGradient
       id="linearGradient2413">
      <stop
         id="stop2415"
         style="stop-color:#000000;stop-opacity:1"
         offset="0" />
      <stop
         id="stop2417"
         style="stop-color:#ff2a2a;stop-opacity:0"
         offset="1" />
    </linearGradient>
    <radialGradient
       cx="13.874031"
       cy="400.75174"
       r="97.218735"
       fx="13.874031"
       fy="400.75174"
       id="radialGradient4488"
       xlink:href="#linearGradient2413"
       gradientUnits="userSpaceOnUse"
       gradientTransform="matrix(-3.5385279,-4.2347995,3.0741747,-3.0196303,-1030.8306,1452.4482)" />
    <linearGradient
       id="linearGradient2599">
      <stop
         id="stop2601"
         style="stop-color:#ff0000;stop-opacity:1"
         offset="0" />
      <stop
         id="stop2603"
         style="stop-color:#800000;stop-opacity:1"
         offset="1" />
    </linearGradient>
    <radialGradient
       cx="24.622458"
       cy="113.58571"
       r="217.17789"
       fx="24.622458"
       fy="113.58571"
       id="radialGradient4486"
       xlink:href="#linearGradient2599"
       gradientUnits="userSpaceOnUse"
       gradientTransform="matrix(0.5899997,1.7361314,-0.9467722,0.3217489,105.91968,139.75035)" />
    <linearGradient
       id="linearGradient2466">
      <stop
         id="stop2468"
         style="stop-color:#f2f2f2;stop-opacity:1"
         offset="0" />
      <stop
         id="stop2470"
         style="stop-color:#e6e6e6;stop-opacity:1"
         offset="1" />
    </linearGradient>
    <radialGradient
       cx="-10.714286"
       cy="146.63927"
       r="217.17789"
       fx="-10.714286"
       fy="146.63927"
       id="radialGradient4484"
       xlink:href="#linearGradient2466"
       gradientUnits="userSpaceOnUse"
       gradientTransform="matrix(0.5899997,1.7361314,-0.9467722,0.3217489,105.92801,139.03751)" />
    <linearGradient
       id="linearGradient2456">
      <stop
         id="stop2458"
         style="stop-color:#000000;stop-opacity:1"
         offset="0" />
      <stop
         id="stop2460"
         style="stop-color:#cccccc;stop-opacity:1"
         offset="1" />
    </linearGradient>
    <radialGradient
       cx="79.285713"
       cy="320.21924"
       r="217.17789"
       fx="79.285713"
       fy="320.21924"
       id="radialGradient4482"
       xlink:href="#linearGradient2456"
       gradientUnits="userSpaceOnUse"
       gradientTransform="matrix(9.96714e-2,1.2164425,-1.5314839,0.1254881,560.0538,188.29313)" />
    <linearGradient
       id="linearGradient2625">
      <stop
         id="stop2627"
         style="stop-color:#b3b3b3;stop-opacity:1"
         offset="0" />
      <stop
         id="stop2629"
         style="stop-color:#f2f2f2;stop-opacity:1"
         offset="1" />
    </linearGradient>
  </defs>
  <g
     transform="translate(-4.3528661,19.595997)"
     id="layer1">
    <g
       transform="matrix(1.4095596,0,0,1.4095596,179.97439,-162.42288)"
       id="g2635">
      <g
         id="g2613">
        <path
           d="M 203.76732,511.71567 C 303.16393,454.32901 340.00797,330.06692 290.34305,228.48154 L 6.8683147,125.30156 C 0.0201113,128.35949 -6.7363126,131.78499 -13.373394,135.61691 C -117.17771,195.54837 -152.78956,328.45367 -92.858134,432.25799 C -32.926681,536.06231 99.96301,571.64711 203.76732,511.71567 z M 290.34305,228.48154 C 289.47004,226.6959 288.58296,224.91171 287.65637,223.14057 C 288.58056,224.91168 289.46926,226.6943 290.34305,228.48154 z M 274.92534,201.83981 C 274.37484,201.02601 273.8271,200.2094 273.26716,199.40523 C 273.83093,200.21477 274.37113,201.02053 274.92534,201.83981 z M 262.12803,184.7992 C 261.27515,183.77197 260.43313,182.74134 259.56388,181.73298 C 260.43252,182.74066 261.27573,183.77266 262.12803,184.7992 z M 245.11601,166.58352 C 244.02861,165.54538 242.95637,164.50215 241.85016,163.48941 C 242.95697,164.50267 244.02804,165.54483 245.11601,166.58352 z M 230.39921,153.7183 C 227.84527,151.68911 225.23062,149.73464 222.59749,147.83031 C 225.23297,149.73622 227.84306,151.68732 230.39921,153.7183 z M 222.59749,147.83031 C 221.25885,146.86219 219.91945,145.90005 218.56131,144.96445 C 219.91559,145.89746 221.26259,146.86495 222.59749,147.83031 z M 218.56131,144.96445 C 217.32929,144.11574 216.08825,143.27947 214.8407,142.45765 C 216.08772,143.2792 217.32981,144.11603 218.56131,144.96445 z M 214.31588,142.11114 C 212.99994,141.24976 211.66024,140.4098 210.32769,139.57841 C 211.66729,140.41405 212.99308,141.24519 214.31588,142.11114 z M 210.32769,139.57841 C 209.10794,138.8174 207.88411,138.07076 206.65089,137.335 C 207.8852,138.07126 209.10688,138.81687 210.32769,139.57841 z M 201.60274,134.40386 C 200.4379,133.75075 199.27348,133.08914 198.09782,132.45816 C 199.2774,133.09125 200.43407,133.7485 201.60274,134.40386 z M 196.87018,131.83182 C 195.65667,131.19038 194.43876,130.55502 193.21431,129.93716 C 194.43735,130.55434 195.65807,131.19112 196.87018,131.83182 z M 193.21431,129.93716 C 191.75792,129.20227 190.29985,128.47971 188.82856,127.77831 C 190.30076,128.48014 191.75702,129.20179 193.21431,129.93716 z M 188.82856,127.77831 C 187.40102,127.09779 185.97752,126.43068 184.53654,125.78183 C 185.97513,126.42967 187.40336,127.09889 188.82856,127.77831 z M 178.62963,123.23827 C 177.55609,122.79237 176.46738,122.36335 175.38727,121.93482 C 176.47175,122.36498 177.55179,122.79061 178.62963,123.23827 z M 175.38727,121.93482 C 173.8678,121.33198 172.36075,120.73268 170.82881,120.16435 C 172.35436,120.73031 173.87409,121.33463 175.38727,121.93482 z M 160.13774,116.52188 C 157.78621,115.78523 155.42926,115.09758 153.05454,114.44093 C 155.42876,115.09732 157.78668,115.78552 160.13774,116.52188 z M 138.02632,110.84879 C 136.43437,110.5276 134.83829,110.21777 133.2391,109.93208 C 134.84067,110.21809 136.432,110.52718 138.02632,110.84879 z M 133.2391,109.93208 C 131.72935,109.66236 130.22784,109.3917 128.71218,109.15375 C 130.21768,109.3902 131.73942,109.66427 133.2391,109.93208 z M 128.0063,109.05612 C 126.53278,108.82972 125.05166,108.63641 123.57315,108.44016 C 125.05488,108.63689 126.5296,108.82912 128.0063,109.05612 z M 123.57315,108.44016 C 121.96072,108.22615 120.33925,108.02734 118.72148,107.84935 C 120.34104,108.02755 121.95894,108.22587 123.57315,108.44016 z M 113.86256,107.37096 C 112.23732,107.22895 110.6101,107.08347 108.98077,106.97795 C 110.60912,107.08343 112.23828,107.22904 113.86256,107.37096 z M 108.98077,106.97795 C 107.35915,106.87293 105.7324,106.79316 104.10735,106.72445 C 105.73915,106.7933 107.35242,106.87248 108.98077,106.97795 z M 104.10735,106.72445 C 102.46809,106.65513 100.82609,106.60413 99.184,106.57195 C 100.81859,106.604 102.47557,106.6556 104.10735,106.72445 z M 69.700821,108.00561 C 68.060337,108.19804 66.43526,108.40545 64.796447,108.63599 C 66.432781,108.40571 68.062816,108.19788 69.700821,108.00561 z M 64.796447,108.63599 C 63.456512,108.82449 62.125837,109.04058 60.787417,109.25464 C 62.122154,109.04116 63.46021,108.82403 64.796447,108.63599 z M 54.981581,110.26116 C 53.352073,110.56759 51.72408,110.89544 50.09815,111.24029 C 51.725649,110.89503 53.350505,110.56793 54.981581,110.26116 z M 34.843256,115.06807 C 33.45588,115.47008 32.07251,115.88038 30.689714,116.31141 C 32.071769,115.8805 33.456633,115.46998 34.843256,115.06807 z M 30.689714,116.31141 C 29.085946,116.81133 27.479476,117.32089 25.882458,117.86002 C 27.482474,117.31967 29.082926,116.81242 30.689714,116.31141 z M 20.522503,119.76381 C 17.526998,120.86386 14.542225,122.02791 11.576508,123.26889 C 14.54236,122.02776 17.526869,120.86398 20.522503,119.76381 z"
           id="path2454"
           style="fill:url(#radialGradient4482);fill-opacity:1;stroke:none;stroke-width:7.5;stroke-miterlimit:4;stroke-dasharray:none;stroke-opacity:1" />
        <g
           id="g2609">
          <path
             d="M 201.13349,506.47104 C 300.53011,449.08436 337.37413,324.82228 287.70922,223.2369 L 4.2344897,120.05692 C -2.6137103,123.11485 -9.3701376,126.54036 -16.007219,130.37227 C -119.81154,190.30373 -155.4234,323.20903 -95.491959,427.01336 C -35.560507,530.81768 97.329178,566.40247 201.13349,506.47104 z M 287.70922,223.2369 C 286.83622,221.45125 285.94914,219.66707 285.02255,217.89594 C 285.94673,219.66705 286.83544,221.44967 287.70922,223.2369 z M 272.29152,196.59517 C 271.74102,195.78137 271.19328,194.96476 270.63333,194.1606 C 271.19711,194.97013 271.7373,195.77588 272.29152,196.59517 z M 259.49421,179.55456 C 258.64133,178.52733 257.7993,177.4967 256.93006,176.48834 C 257.7987,177.49602 258.6419,178.52802 259.49421,179.55456 z M 242.48218,161.33888 C 241.39479,160.30074 240.32255,159.2575 239.21633,158.24477 C 240.32315,159.25804 241.3942,160.30019 242.48218,161.33888 z M 227.76539,148.47366 C 225.21145,146.44448 222.59679,144.49 219.96366,142.58568 C 222.59915,144.49157 225.20924,146.44268 227.76539,148.47366 z M 219.96366,142.58568 C 218.62503,141.61755 217.28562,140.65541 215.92748,139.71981 C 217.28177,140.65282 218.62877,141.62032 219.96366,142.58568 z M 215.92748,139.71981 C 214.69547,138.87109 213.45443,138.03483 212.20688,137.21302 C 213.4539,138.03456 214.69598,138.87139 215.92748,139.71981 z M 211.68205,136.8665 C 210.36612,136.00512 209.02642,135.16517 207.69386,134.33376 C 209.03346,135.16941 210.35925,136.00055 211.68205,136.8665 z M 207.69386,134.33376 C 206.47411,133.57275 205.25029,132.82612 204.01706,132.09036 C 205.25137,132.82662 206.47306,133.57222 207.69386,134.33376 z M 198.96892,129.15923 C 197.80408,128.50611 196.63966,127.8445 195.464,127.21352 C 196.64357,127.84661 197.80025,128.50386 198.96892,129.15923 z M 194.23635,126.58718 C 193.02284,125.94574 191.80494,125.31039 190.58049,124.69253 C 191.80353,125.3097 193.02424,125.94648 194.23635,126.58718 z M 190.58049,124.69253 C 189.12408,123.95763 187.66603,123.23507 186.19472,122.53367 C 187.66693,123.2355 189.1232,123.95716 190.58049,124.69253 z M 186.19472,122.53367 C 184.7672,121.85315 183.3437,121.18603 181.90271,120.53719 C 183.34131,121.18502 184.76954,121.85426 186.19472,122.53367 z M 175.99581,117.99362 C 174.92227,117.54774 173.83356,117.11871 172.75344,116.69019 C 173.83792,117.12034 174.91796,117.54596 175.99581,117.99362 z M 172.75344,116.69019 C 171.23397,116.08734 169.72693,115.48804 168.19498,114.91971 C 169.72053,115.48567 171.24027,116.08999 172.75344,116.69019 z M 157.50391,111.27724 C 155.15238,110.54059 152.79543,109.85294 150.42072,109.19629 C 152.79494,109.85268 155.15286,110.54088 157.50391,111.27724 z M 135.39249,105.60415 C 133.80054,105.28296 132.20446,104.97314 130.60527,104.68744 C 132.20684,104.97345 133.79818,105.28254 135.39249,105.60415 z M 130.60527,104.68744 C 129.09552,104.41772 127.59401,104.14706 126.07836,103.90912 C 127.58386,104.14557 129.1056,104.41963 130.60527,104.68744 z M 125.37247,103.81148 C 123.89896,103.58509 122.41784,103.39176 120.93932,103.19553 C 122.42105,103.39225 123.89578,103.58448 125.37247,103.81148 z M 120.93932,103.19553 C 119.32689,102.98152 117.70542,102.7827 116.08766,102.60471 C 117.70722,102.78291 119.32511,102.98123 120.93932,103.19553 z M 111.22874,102.12632 C 109.6035,101.9843 107.97627,101.83883 106.34694,101.73332 C 107.9753,101.83879 109.60446,101.98439 111.22874,102.12632 z M 106.34694,101.73332 C 104.72532,101.62829 103.09858,101.54852 101.47353,101.47981 C 103.10532,101.54866 104.71859,101.62785 106.34694,101.73332 z M 101.47353,101.47981 C 99.834267,101.41049 98.192264,101.35949 96.550175,101.32731 C 98.184768,101.35936 99.841739,101.41097 101.47353,101.47981 z M 67.066996,102.76097 C 65.426512,102.95341 63.801438,103.16081 62.162621,103.39135 C 63.798956,103.16107 65.42899,102.95324 67.066996,102.76097 z M 62.162621,103.39135 C 60.822688,103.57986 59.492018,103.79593 58.153588,104.01 C 59.488327,103.79652 60.826385,103.57939 62.162621,103.39135 z M 52.347759,105.01651 C 50.718252,105.32295 49.090255,105.6508 47.464324,105.99566 C 49.091824,105.65039 50.716679,105.32329 52.347759,105.01651 z M 32.209431,109.82343 C 30.822058,110.22543 29.438688,110.63574 28.055889,111.06678 C 29.437943,110.63586 30.822807,110.22534 32.209431,109.82343 z M 28.055889,111.06678 C 26.452121,111.5667 24.84565,112.07625 23.248633,112.61538 C 24.848648,112.07503 26.449101,111.56778 28.055889,111.06678 z M 17.888677,114.51917 C 14.893175,115.61921 11.9084,116.78327 8.9426834,118.02425 C 11.908534,116.78313 14.893047,115.61933 17.888677,114.51917 z"
             id="path4474"
             style="fill:url(#radialGradient4484);fill-opacity:1;stroke:none;stroke-width:7.5;stroke-miterlimit:4;stroke-dasharray:none;stroke-opacity:1" />
          <path
             d="M 32.942575,131.25302 C 27.125675,133.09857 21.387275,135.17719 15.817575,137.53427 C 9.9217762,140.02936 4.1854357,142.77944 -1.4011743,145.81552 C -6.9877843,148.8516 -12.406865,152.17782 -17.651175,155.72177 C -22.895485,159.26572 -27.969785,163.04681 -32.838675,167.06552 C -37.707565,171.08423 -42.378315,175.32391 -46.838675,179.78427 C -51.299035,184.24463 -55.538715,188.91538 -59.557425,193.78427 C -63.576135,198.65316 -67.357225,203.72746 -70.901175,208.97177 C -74.445125,214.21608 -77.771345,219.63516 -80.807425,225.22177 C -83.843505,230.80838 -86.593585,236.54472 -89.088675,242.44052 C -91.583765,248.33632 -93.823935,254.39364 -95.744925,260.56552 C -97.665915,266.7374 -99.274905,273.02568 -100.58869,279.44052 C -101.24558,282.64794 -101.83982,285.89732 -102.33869,289.15927 C -102.83756,292.42122 -103.25197,295.69067 -103.58869,299.00302 C -103.92541,302.31537 -104.16826,305.67567 -104.33869,309.03427 C -104.50912,312.39287 -104.58869,315.75856 -104.58869,319.15927 C -104.58869,322.55998 -104.50912,325.95692 -104.33869,329.31552 C -104.16826,332.67412 -103.92541,336.00317 -103.58869,339.31552 C -103.25197,342.62787 -102.83756,345.92857 -102.33869,349.19052 C -101.83982,352.45247 -101.24558,355.6706 -100.58869,358.87802 C -99.274905,365.29286 -97.665915,371.61239 -95.744925,377.78427 C -93.823935,383.95615 -91.583765,389.98222 -89.088675,395.87802 C -86.593585,401.77382 -83.843505,407.51016 -80.807425,413.09677 C -77.771345,418.68338 -74.445125,424.13371 -70.901175,429.37802 C -67.357225,434.62233 -63.576135,439.66538 -59.557425,444.53427 C -55.538715,449.40316 -51.299035,454.07391 -46.838675,458.53427 C -42.378315,462.99463 -37.707565,467.26556 -32.838675,471.28427 C -27.969785,475.30298 -22.895485,479.08407 -17.651175,482.62802 C -12.406865,486.17197 -6.9877843,489.46694 -1.4011743,492.50302 C 4.1854357,495.5391 9.9217762,498.32043 15.817575,500.81552 C 21.713375,503.31061 27.770695,505.51953 33.942575,507.44052 C 40.114455,509.36151 46.402735,511.00175 52.817575,512.31552 C 56.024995,512.97241 59.274375,513.5354 62.536325,514.03427 C 65.798275,514.53314 69.098975,514.94755 72.411325,515.28427 C 75.723675,515.62099 79.052725,515.89509 82.411325,516.06552 C 85.769925,516.23595 89.135615,516.31552 92.536325,516.31552 C 95.937035,516.31552 99.333974,516.23595 102.69256,516.06552 C 106.05116,515.89509 109.38021,515.62099 112.69256,515.28427 C 116.00491,514.94755 119.30561,514.53314 122.56756,514.03427 C 125.82951,513.5354 129.04764,512.97241 132.25506,512.31552 C 138.6699,511.00175 144.98943,509.36151 151.16131,507.44052 C 157.33319,505.51953 163.35926,503.31061 169.25501,500.81552 C 175.15091,498.32043 180.88721,495.5391 186.47381,492.50302 C 192.06041,489.46694 197.51071,486.17197 202.75501,482.62802 C 207.99941,479.08407 213.04241,475.30298 217.91131,471.28427 C 222.78021,467.26556 227.45091,462.99463 231.91131,458.53427 C 236.37171,454.07391 240.64261,449.40316 244.66131,444.53427 C 248.68001,439.66538 252.46111,434.62233 256.00501,429.37802 C 259.54901,424.13371 262.84401,418.68338 265.88001,413.09677 C 268.91611,407.51016 271.69751,401.77382 274.19261,395.87802 C 276.68761,389.98222 278.89661,383.95615 280.81761,377.78427 C 282.73851,371.61239 284.37881,365.29286 285.69261,358.87802 C 286.34941,355.6706 286.91241,352.45247 287.41131,349.19052 C 287.91021,345.92857 288.32461,342.62787 288.66131,339.31552 C 288.99801,336.00317 289.27211,332.67412 289.44261,329.31552 C 289.61301,325.95692 289.69261,322.55998 289.69261,319.15927 C 289.69261,315.75856 289.61301,312.39287 289.44261,309.03427 C 289.27211,305.67567 288.99801,302.31537 288.66131,299.00302 C 288.32461,295.69067 287.91021,292.42122 287.41131,289.15927 C 286.91241,285.89732 286.34941,282.64794 285.69261,279.44052 C 284.37881,273.02568 282.73851,266.7374 280.81761,260.56552 C 278.89661,254.39364 276.68761,248.33632 274.19261,242.44052 C 271.69751,236.54472 268.91611,230.80838 265.88001,225.22177 C 263.66801,221.15149 261.17651,217.26898 258.69261,213.37802 L 32.942575,131.25302 z"
             id="path2595"
             style="fill:url(#radialGradient4486);fill-opacity:1;stroke:none;stroke-width:7.5;stroke-miterlimit:4;stroke-dasharray:none;stroke-opacity:1" />
        </g>
      </g>
      <g
         id="g2631">
        <path
           d="M 4.7156447,120.47823 C 6.7959939,125.31817 9.0328328,130.09529 11.462964,134.81812 C 65.034155,238.93188 185.25536,275.78139 288.19023,223.65856 L 4.7156447,120.47823 z"
           id="path2411"
           style="fill:url(#radialGradient4488);fill-opacity:1;stroke:none;stroke-width:7.5;stroke-miterlimit:4;stroke-dasharray:none;stroke-opacity:1" />
        <path
           d="M 4.2523509,120.30961 C 6.4546918,124.81437 8.8099483,129.26614 11.354769,133.67387 C 67.454286,230.84111 187.46909,268.25769 287.72705,223.48961 L 4.2523509,120.30961 z"
           id="path2385"
           style="fill:url(#linearGradient4490);fill-opacity:1;stroke:none;stroke-width:7.5;stroke-miterlimit:4;stroke-dasharray:none;stroke-opacity:1" />
      </g>
    </g>
    <path
       d="M 178.15822,109.94692 C 173.95068,106.02289 170.39018,103.51955 167.47671,102.43688 C 164.56314,101.35449 160.14,100.88089 154.20729,101.01606 C 150.88073,100.91722 146.3702,101.02498 140.67569,101.33931 C 134.98112,101.65394 129.79401,102.76904 125.11435,104.68462 C 120.43466,106.60049 117.95388,109.91072 117.67198,114.61532 C 117.83234,118.37673 119.13538,120.79988 121.5811,121.88479 C 124.0268,122.96994 126.65293,124.50603 129.45949,126.49305 C 132.26603,128.48031 134.29076,132.70768 135.53368,139.17517 C 136.6035,146.49078 137.25471,153.83167 137.4873,161.19784 C 137.71985,168.56418 137.81288,175.90506 137.7664,183.22052 C 137.77906,187.94817 137.6522,193.10709 137.38582,198.69728 C 137.1194,204.28756 136.63733,209.34499 135.93963,213.86959 C 135.13022,218.00051 133.63673,220.81207 131.45917,222.30428 C 129.28157,223.79653 127.21675,225.16472 125.2647,226.40886 C 123.31264,227.65303 122.2702,229.96844 122.1374,233.35509 C 122.33786,237.68646 124.25985,240.88643 127.90337,242.955 C 131.54685,245.02358 135.70907,246.35919 140.39002,246.96185 C 145.07092,247.56451 149.06775,247.83264 152.38052,247.76624 C 155.75962,247.83514 159.80406,247.562 164.51386,246.94682 C 169.22355,246.33164 173.4033,244.96094 177.05313,242.83472 C 180.70284,240.70851 182.62733,237.41332 182.82662,232.94914 C 182.71254,229.83563 181.74528,227.76329 179.92484,226.73211 C 178.10428,225.70098 176.11463,224.50068 173.9559,223.13121 C 171.79706,221.76178 170.15322,219.01287 169.02439,214.88445 C 168.43233,212.16125 168.04329,209.13356 167.85729,205.80137 C 167.67117,202.46926 167.5866,199.34008 167.60357,196.41382 C 167.48089,193.82173 167.77689,190.37963 168.49158,186.08752 C 169.20616,181.79553 171.07521,179.41905 174.09874,178.95806 C 176.30178,179.10613 178.54295,180.02797 180.82225,181.72359 C 183.10141,183.41933 184.98738,185.00083 186.48015,186.4681 L 249.1991,242.69189 C 250.71704,244.05773 252.34929,245.23329 254.09585,246.21856 C 255.84213,247.20382 257.72809,247.71972 259.75375,247.76624 C 264.18771,247.47931 267.27241,244.96344 269.00786,240.21861 C 270.743,235.47379 271.72279,230.22153 271.94722,224.46181 C 272.17133,218.70214 272.23398,214.15653 272.13516,210.82498 L 272.13516,158.25472 C 272.08003,154.18687 272.18998,149.53539 272.465,144.30026 C 272.7397,139.06532 273.50931,134.51533 274.77382,130.65026 C 276.87529,126.59513 279.67463,124.10024 283.17187,123.16559 C 286.66877,122.23119 288.60548,119.17813 288.982,114.00639 C 288.76382,109.43711 286.7416,106.23965 282.91533,104.41399 C 279.08873,102.58862 274.76614,101.54117 269.94755,101.27165 C 265.12865,101.00242 261.1218,100.91722 257.92698,101.01606 C 254.88224,100.9285 251.09339,101.03625 246.56044,101.33932 C 242.02723,101.64267 237.96776,102.66756 234.382,104.41399 C 230.79602,106.16071 228.90159,109.1552 228.69873,113.39747 C 229.08765,118.34509 230.99899,121.3897 234.43275,122.5313 C 237.86627,123.67315 240.48801,126.10884 242.29799,129.83836 C 243.08438,132.33337 243.59182,135.36106 243.82029,138.92145 C 244.04851,142.48206 244.15,145.61124 244.12476,148.30899 C 244.22188,150.30922 243.97662,152.70262 243.38897,155.48919 C 242.80107,158.27595 241.28722,159.80671 238.84743,160.08148 C 236.87677,159.8786 234.62714,158.81298 232.09854,156.88464 C 229.56971,154.95648 227.62455,153.38344 226.26305,152.1655 L 178.15822,109.94692 z M 320.25179,103.24877 C 315.55376,102.9064 310.2849,103.084 304.44519,103.78159 C 298.60545,104.47945 295.41707,107.7524 294.88004,113.60045 C 295.06171,117.92567 296.41237,120.30372 298.932,120.7346 C 301.45162,121.16573 304.05019,122.52139 306.7277,124.8016 C 309.40519,127.08204 311.07158,133.15873 311.72688,143.03167 C 312.40344,154.77794 312.83194,163.53588 313.01238,169.30552 C 313.19278,175.07532 313.12512,180.85631 312.80941,186.64852 C 312.49365,192.44085 311.92983,201.2439 311.11796,213.05769 C 310.48271,219.91749 308.95664,224.33028 306.53977,226.2961 C 304.12286,228.26195 301.78491,229.6527 299.52589,230.46834 C 297.26686,231.28401 296.05654,233.39644 295.89491,236.80564 C 295.62428,238.32372 296.21629,240.1082 297.67094,242.15908 C 299.12558,244.20996 303.06665,245.33478 309.49417,245.53352 L 392.91647,245.53352 C 396.36692,245.55044 399.51301,245.66884 402.35476,245.88873 C 405.19628,246.10862 407.73345,246.32851 409.96628,246.54839 C 412.1143,246.86554 413.95798,247.14463 415.49732,247.38566 C 417.03641,247.62669 418.16969,247.75355 418.89714,247.76624 C 421.68852,247.54572 424.54018,245.23533 427.45211,240.83505 C 430.36377,236.43479 432.82452,231.26773 434.83435,225.33385 C 436.8439,219.40002 437.89134,214.02247 437.97669,209.20118 C 437.97654,206.17353 437.16465,203.29806 435.541,200.57479 C 433.91707,197.8516 431.48138,196.39696 428.23394,196.21085 C 423.19078,196.56422 419.79034,199.03749 418.03262,203.63067 C 416.27464,208.22393 413.1298,212.81715 408.59808,217.41035 C 404.06614,222.0036 395.11775,224.47687 381.7529,224.83018 C 374.75523,225.03067 369.58065,224.7876 366.22915,224.10098 C 362.8775,223.41439 360.70994,221.08145 359.72647,217.10213 C 358.74285,213.12287 358.30433,206.29443 358.4109,196.6168 C 358.22477,193.18321 358.54615,190.00329 359.37502,187.07702 C 360.20377,184.15087 362.65636,182.59474 366.73283,182.40862 C 373.20661,182.6718 377.08316,184.5136 378.36248,187.93402 C 379.64164,191.35456 380.48109,194.77504 380.88086,198.19548 C 381.28046,201.61601 383.3979,203.45781 387.2332,203.72089 C 391.23494,203.47159 394.21439,201.26394 396.17157,197.09792 C 398.12853,192.93199 399.40902,188.30369 400.01304,183.21299 C 400.61684,178.12243 400.88998,174.06546 400.83245,171.04208 C 400.89499,168.16919 400.67949,164.33023 400.18594,159.52518 C 399.69218,154.7203 398.5445,150.35511 396.7429,146.4296 C 394.94109,142.50429 392.10948,140.42443 388.24807,140.19004 C 383.77127,140.46829 381.20027,142.41534 380.53506,146.03118 C 379.86967,149.64722 379.14798,153.26315 378.37,156.879 C 377.59184,160.49503 374.79532,162.44208 369.98041,162.72015 C 364.02221,162.94857 360.30948,162.39039 358.84221,161.04561 C 357.37482,159.70099 356.75744,156.19969 356.99008,150.54171 C 356.42761,139.18796 356.99424,131.7033 358.68998,128.08771 C 360.38559,124.47236 366.58475,122.8232 377.28747,123.14022 C 389.64498,123.38091 397.76644,125.06484 401.65186,128.19202 C 405.53707,131.31944 408.17072,134.44674 409.55281,137.57393 C 410.93467,140.70133 414.04944,142.38526 418.89714,142.62572 C 422.80003,142.43554 425.54863,140.83712 427.14295,137.83046 C 428.737,134.82402 429.50661,131.55107 429.45178,128.0116 C 429.4897,122.90354 428.19574,116.98347 425.5699,110.25137 C 422.94379,103.51955 418.75746,99.83219 413.01089,99.189295 C 411.86059,99.358588 409.13735,100.03517 404.84119,101.21903 C 400.54479,102.40319 391.83384,103.07977 378.70829,103.24877 L 320.25179,103.24877 z M 576.11505,233.76103 C 577.78944,238.07423 579.81918,241.47404 582.20426,243.96047 C 584.58906,246.4469 588.24259,247.71549 593.16486,247.76624 C 598.81414,247.5548 603.14425,245.33901 606.15519,241.11884 C 609.16581,236.89868 611.66915,231.94274 613.66523,226.251 L 648.57675,134.91271 C 651.55772,128.42189 654.57696,124.30321 657.63447,122.55667 C 660.69154,120.81038 662.3407,117.75731 662.58195,113.39747 C 662.12081,107.90886 659.23689,104.42447 653.93019,102.94431 C 648.62305,101.46443 643.65865,100.82168 639.03697,101.01606 C 636.05857,100.93226 632.31734,101.0325 627.81326,101.31676 C 623.30881,101.60132 619.26688,102.57358 615.68745,104.23357 C 612.10767,105.89384 610.21575,108.7455 610.0117,112.78855 C 610.56125,117.77 612.76013,120.64546 616.60835,121.41494 C 620.45621,122.18467 622.6551,124.45122 623.20501,128.21457 C 623.13967,129.57035 622.30021,133.21887 620.68662,139.16013 C 619.07267,145.10161 617.07551,150.88511 614.69513,156.51065 C 612.3144,162.13636 609.94136,165.15341 607.57601,165.56178 C 605.08519,165.10517 602.86093,162.87246 600.90324,158.86364 C 598.94523,154.85499 597.58361,151.81039 596.81839,149.72981 C 595.5581,147.18005 593.81591,143.55189 591.59181,138.84533 C 589.3674,134.13899 588.13264,130.25711 587.88754,127.1997 C 588.26796,124.83179 589.79026,122.76823 592.45445,121.00899 C 595.11832,119.25001 596.64063,116.7805 597.02136,113.60045 C 597.2743,112.35893 596.85832,110.76019 595.77345,108.80424 C 594.68826,106.84856 591.41562,105.08445 585.95552,103.51189 C 580.49513,101.93961 571.32874,101.10767 558.45631,101.01606 C 544.61263,101.15904 534.90747,102.22653 529.34082,104.21854 C 523.77399,106.21083 520.56399,108.27064 519.71083,110.39797 C 518.85751,112.52556 518.57936,113.86369 518.87639,114.41234 C 518.93551,116.92004 519.67975,118.95824 521.1091,120.52693 C 522.53829,122.09588 524.2974,123.37292 526.38642,124.35807 C 529.48169,126.49787 531.96812,129.67779 533.84572,133.89784 C 535.72313,138.11812 536.68725,140.89209 536.7381,142.21978 C 536.66611,143.09521 536.30245,144.43991 535.64711,146.25388 C 534.99158,148.06806 534.47569,149.36202 534.09943,150.13576 C 533.54539,152.20365 532.31909,155.52735 530.42053,160.10685 C 528.52178,164.68653 526.22987,167.24908 523.54479,167.7945 C 521.14285,167.27023 518.99471,164.76688 517.10036,160.28446 C 515.20586,155.8022 513.97111,152.48697 513.39609,150.33873 C 512.74481,148.67698 511.45931,145.2518 509.53959,140.06318 C 507.61972,134.87476 506.53719,130.58694 506.292,127.1997 C 506.48645,124.27784 507.26452,122.05359 508.6262,120.52693 C 509.98774,119.00053 510.76581,116.82701 510.9604,114.00639 C 511.36628,109.82442 509.2858,106.61912 504.71895,104.3905 C 500.15198,102.16216 490.66296,101.03735 476.25185,101.01606 C 472.8589,100.93476 468.30076,101.14275 462.57742,101.64001 C 456.85404,102.13757 451.64939,103.41305 446.96346,105.46645 C 442.27752,107.52013 439.79422,110.84038 439.51357,115.42721 C 439.57872,119.29512 440.35052,121.7308 441.82897,122.73427 C 443.30742,123.73799 445.10161,124.86562 447.21154,126.11717 C 449.32146,127.36896 451.35621,130.30081 453.3158,134.91271 L 491.06895,231.32535 C 492.70961,236.09525 494.75626,240.00249 497.20891,243.04709 C 499.66145,246.0917 503.63636,247.66475 509.13364,247.76624 C 515.45112,247.67321 519.81506,245.98176 522.22545,242.69189 C 524.63569,239.40202 526.76691,235.07192 528.61914,229.70155 L 541.00055,199.05249 C 543.50802,192.60812 545.44472,187.93972 546.81067,185.04728 C 548.17641,182.15497 549.75792,180.73415 551.5552,180.78483 C 553.15773,181.00055 554.41786,182.14228 555.33558,184.21002 C 556.25308,186.27787 556.95503,187.97778 557.44144,189.30974 L 576.11505,233.76103 z"
       transform="matrix(0.9396926,0.3420202,-0.3420202,0.9396926,0,0)"
       id="text3900"
       style="font-size:101.48828888px;font-style:normal;font-variant:normal;font-weight:normal;font-stretch:normal;text-align:center;line-height:100%;writing-mode:lr-tb;text-anchor:middle;fill:#ffffff;fill-opacity:1;stroke:none;stroke-width:1px;stroke-linecap:butt;stroke-linejoin:miter;stroke-opacity:1;font-family:Impact;-inkscape-font-specification:Impact" />
  </g>
</svg>
