<?xml version="1.0" encoding="utf-8"?>
<!-- Generator: Adobe Illustrator 21.1.0, SVG Export Plug-In . SVG Version: 6.00 Build 0)  -->
<svg version="1.1" id="Layer_1" xmlns="http://www.w3.org/2000/svg" xmlns:xlink="http://www.w3.org/1999/xlink" x="0px" y="0px"
	 viewBox="0 0 421 154" style="enable-background:new 0 0 324 114;" xml:space="preserve">
<style type="text/css">
	.st0{fill:#FFFFFF;}
	.st1{fill:#C23522;}
	.st2{fill:#F3F3F5;}
	.st3{clip-path:url(#SVGID_2_);fill:#FFFFFF;}
</style>
<g>
	<path class="st0" d="M107.2,72.6c-2.6-0.9-4.8-2.3-6.8-4.2l1.6-2.9c2.1,1.9,4.3,3.2,6.4,4c2.1,0.8,4.7,1.2,7.7,1.2
		c3.6,0,6.3-0.7,8.3-2.2s3-3.5,3-6.2c0-1.6-0.5-2.8-1.4-3.8c-1-1-2.2-1.7-3.7-2.3c-1.5-0.5-3.5-1.1-5.9-1.7c-3.3-0.7-5.9-1.5-8-2.2
		c-2-0.8-3.7-1.9-5.1-3.5c-1.4-1.5-2.1-3.6-2.1-6.2c0-2.4,0.6-4.5,1.9-6.3c1.2-1.8,3-3.2,5.3-4.2c2.3-1,4.9-1.5,8-1.5
		c2.9,0,5.6,0.5,8,1.4c2.5,0.9,4.6,2.3,6.4,4.1l-1.6,2.9c-2-1.8-4-3.1-6.1-3.9c-2-0.8-4.3-1.2-6.8-1.2c-3.6,0-6.3,0.8-8.3,2.3
		c-2,1.5-3,3.6-3,6.4c0,2.4,0.9,4.1,2.6,5.3c1.7,1.1,4.3,2.1,7.7,2.9l1.6,0.4c3.2,0.8,5.8,1.5,7.7,2.2c1.9,0.7,3.5,1.7,4.8,3.2
		c1.3,1.4,2,3.3,2,5.7c0,2.3-0.6,4.4-1.9,6.1c-1.2,1.8-3,3.1-5.3,4.1c-2.3,1-4.9,1.5-7.9,1.5C112.7,73.9,109.7,73.5,107.2,72.6z"/>
	<path class="st0" d="M165.7,31.1h3.7v42.3h-3.7V53.6h-23.3v19.9h-3.7V31.1h3.7v19.2h23.3V31.1z"/>
	<path class="st0" d="M178.5,73.4V31.1h26.1v3.2h-22.4v16h21.2v3.2h-21.2v16.7h22.4v3.2H178.5z"/>
	<path class="st0" d="M213.7,73.3V31h26.1v3.2h-22.4v16h21.2v3.2h-21.2v16.7h22.4v3.2H213.7z"/>
	<path class="st0" d="M261,73.1V34h-13.8v-3.2h31.3V34h-13.8v39.1H261z"/>
	<path class="st0" d="M290.2,72.2c-2.6-0.9-4.8-2.3-6.8-4.2l1.6-2.9c2.1,1.9,4.3,3.2,6.4,4c2.1,0.8,4.7,1.2,7.7,1.2
		c3.6,0,6.3-0.7,8.3-2.2c2-1.5,3-3.5,3-6.2c0-1.6-0.5-2.8-1.4-3.8c-1-1-2.2-1.7-3.7-2.3c-1.5-0.5-3.5-1.1-5.9-1.7
		c-3.3-0.7-5.9-1.5-8-2.2c-2-0.8-3.7-1.9-5.1-3.5c-1.4-1.5-2.1-3.6-2.1-6.2c0-2.4,0.6-4.5,1.9-6.3c1.2-1.8,3-3.2,5.3-4.2
		c2.3-1,4.9-1.5,8-1.5c2.9,0,5.6,0.5,8,1.4c2.5,0.9,4.6,2.3,6.4,4.1l-1.6,2.9c-2-1.8-4-3.1-6.1-3.9c-2-0.8-4.3-1.2-6.8-1.2
		c-3.6,0-6.3,0.8-8.3,2.3c-2,1.5-3,3.6-3,6.4c0,2.4,0.9,4.1,2.6,5.3c1.7,1.1,4.3,2.1,7.7,2.9l1.6,0.4c3.2,0.8,5.8,1.5,7.7,2.2
		c1.9,0.7,3.5,1.7,4.8,3.2c1.3,1.4,2,3.3,2,5.7c0,2.3-0.6,4.4-1.9,6.1c-1.2,1.8-3,3.1-5.3,4.1c-2.3,1-4.9,1.5-7.9,1.5
		C295.7,73.6,292.7,73.1,290.2,72.2z"/>
</g>
<path class="st1" d="M45.3,9C24,10.3,6.7,27.6,5.4,48.9C3.9,73.7,23.5,94.3,48,94.3c23.6,0,42.7-19.1,42.7-42.7
	C90.7,27.1,70.1,7.4,45.3,9z M76,41.9c-1,1.1-2.5,1.7-4.3,1.7H54v27.7c0,1.8-0.6,3.3-1.7,4.3c-1.1,1-2.5,1.6-4.2,1.6
	c-1.6,0-3-0.5-4.1-1.5c-1.1-1-1.7-2.5-1.7-4.3V43.7H24.7c-1.8,0-3.3-0.6-4.3-1.7c-1-1.1-1.6-2.5-1.6-4.2s0.5-3,1.6-4.2
	c1-1.1,2.5-1.7,4.3-1.7h47c1.8,0,3.3,0.6,4.3,1.7c1,1.1,1.6,2.5,1.6,4.2S77,40.8,76,41.9z"/>
<path class="st2" d="M71.6,31.9h-47c-1.8,0-3.3,0.6-4.3,1.7c-1,1.1-1.6,2.5-1.6,4.2s0.5,3,1.6,4.2c1,1.1,2.5,1.7,4.3,1.7h17.7v27.7
	c0,1.8,0.6,3.3,1.7,4.3c1.1,1,2.5,1.5,4.1,1.5c1.7,0,3-0.5,4.2-1.6c1.1-1,1.7-2.4,1.7-4.3V43.7h17.6c1.8,0,3.3-0.6,4.3-1.7
	c1-1.1,1.6-2.5,1.6-4.2s-0.5-3-1.6-4.2C74.9,32.5,73.4,31.9,71.6,31.9z"/>
<g>
	<defs>
		<path id="SVGID_1_" d="M182.9,98.6L182.9,98.6l0,1.5H181V85h1.9v7.1h0.1c0.6-0.9,1.8-1.7,3.4-1.7c2.8,0,4.7,2.2,4.7,5
			c0,2.8-1.9,5-4.8,5C184.9,100.4,183.6,99.8,182.9,98.6L182.9,98.6z M189.1,95.4c0-1.8-1.1-3.4-3.2-3.4c-1.9,0-3.2,1.6-3.2,3.4
			c0,1.8,1.3,3.4,3.2,3.4C188,98.8,189.1,97.1,189.1,95.4L189.1,95.4z M194.3,90.6l2.9,7.4h0l2.6-7.4h2l-4.6,11.7
			c-0.6,1.6-1.4,2.6-3.3,2.6c-0.4,0-0.8,0-1.2-0.1l0.2-1.7c0.3,0.1,0.6,0.2,0.9,0.2c1,0,1.4-0.6,1.8-1.6l0.6-1.6l-4.1-9.5H194.3
			L194.3,90.6z M216.3,98.7L216.3,98.7c-0.7,1.1-2.1,1.7-3.4,1.7c-2.9,0-4.8-2.2-4.8-5c0-2.8,1.9-5,4.8-5c1.5,0,2.8,0.7,3.4,1.7h0.1
			v-1.5h1.8v14.3h-1.9V98.7L216.3,98.7z M210.1,95.4c0,1.8,1.1,3.4,3.1,3.4c1.9,0,3.2-1.6,3.2-3.4c0-1.8-1.3-3.4-3.2-3.4
			C211.2,91.9,210.1,93.6,210.1,95.4L210.1,95.4z M229.9,100.1h-1.8c0-0.5-0.1-1.2-0.1-1.6h0c-0.5,1-1.7,1.8-3.1,1.8
			c-2.4,0-3.5-1.7-3.5-3.9v-5.9h1.9v5.2c0,1.6,0.4,2.9,2.2,2.9c1.5,0,2.5-1.2,2.5-3.1v-5h1.9v7.4C229.8,98.6,229.8,99.5,229.9,100.1
			L229.9,100.1z M235,90.6v9.5h-1.9v-9.5H235L235,90.6z M235.3,87.2c0,0.7-0.6,1.2-1.3,1.2c-0.7,0-1.2-0.5-1.2-1.2
			c0-0.7,0.6-1.2,1.2-1.2C234.7,86,235.3,86.5,235.3,87.2L235.3,87.2z M246.2,91.9l-1.4,1.1c-0.4-0.6-1.3-1.1-2.2-1.1
			c-2,0-3.1,1.6-3.1,3.4c0,1.8,1.1,3.4,3.1,3.4c1,0,1.8-0.4,2.3-1l1.3,1.1c-0.8,0.9-2,1.5-3.5,1.5c-2.9,0-5.1-2-5.1-5
			c0-3,2.2-5,5.1-5C244,90.4,245.5,90.9,246.2,91.9L246.2,91.9z M250,85v9.8h0.1l4-4.1h2.5l-4.4,4.3l4.8,5.2h-2.6l-4.3-4.9H250v4.9
			h-1.9V85H250L250,85z M260.6,98.6L260.6,98.6l0,1.5h-1.8V85h1.9v7.1h0.1c0.6-0.9,1.8-1.7,3.4-1.7c2.8,0,4.7,2.2,4.7,5
			c0,2.8-1.9,5-4.8,5C262.6,100.4,261.3,99.8,260.6,98.6L260.6,98.6z M266.8,95.4c0-1.8-1.1-3.4-3.2-3.4c-1.9,0-3.2,1.6-3.2,3.4
			c0,1.8,1.3,3.4,3.2,3.4C265.7,98.8,266.8,97.1,266.8,95.4L266.8,95.4z M281,95.4c0,2.9-2.2,5-5.1,5s-5.1-2.1-5.1-5
			c0-2.9,2.2-5,5.1-5S281,92.4,281,95.4L281,95.4z M279,95.4c0-1.8-1.1-3.4-3.2-3.4c-2,0-3.2,1.6-3.2,3.4c0,1.8,1.1,3.4,3.2,3.4
			C277.9,98.8,279,97.2,279,95.4L279,95.4z M293.2,95.4c0,2.9-2.2,5-5.1,5c-2.9,0-5.1-2.1-5.1-5c0-2.9,2.2-5,5.1-5
			C291,90.4,293.2,92.4,293.2,95.4L293.2,95.4z M291.2,95.4c0-1.8-1.1-3.4-3.2-3.4c-2,0-3.2,1.6-3.2,3.4c0,1.8,1.1,3.4,3.2,3.4
			C290.1,98.8,291.2,97.2,291.2,95.4L291.2,95.4z M297.7,85v9.8h0.1l4-4.1h2.5l-4.4,4.3l4.8,5.2H302l-4.3-4.9h-0.1v4.9h-1.9V85
			H297.7L297.7,85z M312.5,91.9l-1.3,1.1c-0.4-0.7-1.2-1.2-2.2-1.2c-0.9,0-1.8,0.3-1.8,1.2c0,0.8,0.7,1.1,2.2,1.4
			c1.8,0.4,3.2,1.1,3.2,2.8c0,2.2-1.9,3.1-3.8,3.1c-1.4,0-2.9-0.6-3.8-1.7l1.3-1.1c0.5,0.7,1.5,1.3,2.5,1.3c0.9,0,1.9-0.3,1.9-1.4
			c0-0.9-0.9-1.2-2.5-1.6c-1.3-0.3-2.8-0.8-2.8-2.6c0-2,1.8-2.9,3.6-2.9C310.4,90.4,311.9,90.9,312.5,91.9L312.5,91.9z"/>
	</defs>
	<use xlink:href="#SVGID_1_"  style="overflow:visible;fill-rule:evenodd;clip-rule:evenodd;fill:#1E3237;"/>
	<clipPath id="SVGID_2_">
		<use xlink:href="#SVGID_1_"  style="overflow:visible;"/>
	</clipPath>
	<rect x="176" y="80" class="st3" width="141.6" height="29.9"/>
</g>
</svg>
