<svg xmlns="http://www.w3.org/2000/svg" width="304px" height="118px" viewBox="0 0 304 118">
  <title>QuickBooks Time Logo</title>
  <path d="M0,59.001965 C0,26.4178518 26.864,0 60,0 C93.136,0 120,26.4178518 120,59.001965 C120,91.5821482 93.136,118 60,118 C26.864,118 0,91.5821482 0,59.001965 Z" fill="#2CA01C" fill-rule="nonzero"></path>
  <path d="M79.4650884,38.44025 C91.3604227,38.44025 101,47.8698811 101,59.5 C101,71.1301189 91.3604227,80.5633574 79.4650884,80.5633574 L64.0735152,80.5633574 L64.0735152,24 C68.4890396,24 72.0701924,27.5027436 72.0701924,31.8243573 L72.0701924,72.7390001 L79.4650884,72.7390001 C86.9301306,72.7390001 93.0033227,66.7976832 93.0033227,59.5 C93.0033227,52.2023168 86.9301306,46.2646073 79.4650884,46.2646073 L76.3897273,46.2646073 L76.3897273,38.44025 L79.4650884,38.44025 Z" fill="#FFFFFF" fill-rule="nonzero"></path>
  <path d="M21,59.4963926 C21,47.8662738 30.6395773,38.4366426 42.5349116,38.4366426 L57.9264848,38.4366426 L57.9264848,95 C53.5072684,95 49.9261156,91.4972564 49.9261156,87.1756427 L49.9261156,46.2609999 L42.5349116,46.2609999 C35.0698694,46.2609999 28.9966773,52.1987095 28.9966773,59.4963926 C28.9966773,66.7940758 35.0698694,72.7353927 42.5349116,72.7353927 L45.6102727,72.7353927 L45.6102727,80.55975 L42.5349116,80.55975 C30.6395773,80.55975 21,71.1265115 21,59.4963926 Z" fill="#FFFFFF" fill-rule="nonzero"></path>
  <polygon fill="#FFFFFF" fill-rule="nonzero" points="171.513004 83.0984743 171.513004 40.0332871 187.189238 40.0332871 187.189238 34 149 34 149 40.0332871 164.676233 40.0332871 164.676233 83.0984743"></polygon>
  <path d="M196.650224,42.5298197 C198.998206,42.5298197 201.000897,40.7267684 201.000897,38.368932 C201.000897,35.9417476 198.998206,34.1386963 196.650224,34.1386963 C194.302242,34.1386963 192.36861,36.0110957 192.36861,38.368932 C192.36861,40.6574202 194.302242,42.5298197 196.650224,42.5298197 Z" fill="#FFFFFF" fill-rule="nonzero"></path>
  <polygon fill="#FFFFFF" fill-rule="nonzero" points="199.895964 83.0984743 199.895964 50.2274619 193.404484 50.2274619 193.404484 83.0984743"></polygon>
  <path d="M217.713004,83.0984743 L217.713004,65.6227462 C217.713004,59.1040222 221.304036,54.8044383 226.069058,54.8044383 C231.24843,54.8044383 232.974888,58.4105409 232.974888,63.5423024 L232.974888,83.0984743 L239.466368,83.0984743 L239.466368,65.3453537 C239.466368,60.2135922 241.81435,54.8044383 247.753363,54.8044383 C253.416143,54.8044383 255.004484,59.520111 255.004484,64.8599168 L255.004484,83.0984743 L261.495964,83.0984743 L261.495964,62.7101248 C261.495964,55.3592233 257.697758,49.3259362 249.272646,49.3259362 C244.64574,49.3259362 240.364126,51.6837725 238.15426,55.9140083 C236.15157,51.2676838 232.353363,49.3259362 228.002691,49.3259362 C223.030493,49.3259362 219.232287,52.1692094 217.574888,55.6366158 L217.367713,55.6366158 C217.367713,54.2496533 217.229596,51.8918169 217.09148,50.2274619 L210.945291,50.2274619 C211.152466,52.3772538 211.221525,55.5672677 211.221525,57.3009709 L211.221525,83.0984743 L217.713004,83.0984743 Z" fill="#FFFFFF" fill-rule="nonzero"></path>
  <path d="M287.254709,49.3259362 C296.92287,49.3259362 303,55.9140083 303,66.3855756 C303,67.0790569 303,67.8418863 302.930942,68.6047157 L302.930942,68.6047157 L276.965022,68.6047157 C277.172197,74.221914 281.868161,78.590846 287.6,78.590846 C292.019731,78.590846 295.265471,76.371706 297.130045,73.5977809 L297.130045,73.5977809 L301.687892,77.2732316 C298.165919,81.850208 293.400897,84 287.6,84 C277.655605,84 270.335426,77.0651872 270.335426,66.7323162 C270.335426,56.4687933 277.655605,49.3259362 287.254709,49.3259362 Z M287.254709,54.4576976 C281.660987,54.4576976 277.379372,58.6185853 276.965022,63.7503467 L276.965022,63.7503467 L296.439462,63.7503467 C296.301345,58.5492372 293.26278,54.4576976 287.254709,54.4576976 Z" fill="#FFFFFF" fill-rule="nonzero"></path>
</svg>
